<?xml version="1.0" standalone="no"?>
<!DOCTYPE svg PUBLIC "-//W3C//DTD SVG 20010904//EN"
 "http://www.w3.org/TR/2001/REC-SVG-20010904/DTD/svg10.dtd">
<svg version="1.0" xmlns="http://www.w3.org/2000/svg"
 width="600.000000pt" height="327.000000pt" viewBox="0 0 600.000000 327.000000"
 preserveAspectRatio="xMidYMid meet">
<g transform="translate(0.000000,327.000000) scale(0.100000,-0.100000)"
fill="#222020" stroke="none">
<path d="M0 1635 l0 -1635 3000 0 3000 0 0 1635 0 1635 -845 0 -845 0 0 -271
0 -271 41 42 c22 23 70 56 107 73 56 26 80 31 166 35 85 3 111 1 166 -18 126
-42 211 -134 245 -265 12 -47 15 -124 15 -387 l0 -328 -165 0 -165 0 0 273 c0
212 -3 285 -15 323 -14 49 -48 90 -92 113 -31 16 -134 14 -176 -4 -44 -18 -88
-71 -103 -122 -11 -37 -12 -38 -70 -45 -122 -16 -269 -86 -322 -153 l-22 -28
0 517 0 516 -1960 0 -1960 0 0 -1635z m4927 1618 c-3 -2 -19 -5 -37 -5 -24 -1
-28 -3 -16 -10 9 -5 22 -8 28 -6 14 3 114 -16 188 -35 25 -6 54 -10 65 -9 17
2 18 1 5 -8 -13 -10 -12 -11 3 -6 10 3 29 -1 42 -10 13 -9 30 -12 36 -8 8 4 9
3 5 -4 -4 -7 -2 -13 3 -13 20 -3 26 -5 71 -28 25 -13 47 -23 50 -23 10 3 41
-10 37 -15 -3 -2 -16 1 -29 7 -23 13 -23 13 -3 -7 11 -11 30 -19 43 -17 12 1
20 -1 17 -5 -2 -5 2 -17 10 -27 13 -17 16 -17 26 -4 9 13 10 12 5 -3 -3 -10 2
-25 13 -36 11 -11 17 -22 13 -25 -3 -3 3 -6 12 -6 13 0 16 -5 12 -17 -4 -10
-4 -14 0 -10 12 11 33 -13 27 -30 -5 -12 -3 -14 7 -8 9 6 11 4 5 -5 -4 -7 -2
-15 4 -20 7 -4 20 -49 28 -101 14 -79 14 -109 5 -188 -7 -51 -16 -100 -21
-109 -6 -10 -6 -23 0 -34 7 -13 6 -16 -4 -12 -9 3 -21 -15 -36 -53 -12 -32
-31 -74 -42 -94 -10 -20 -15 -40 -11 -44 4 -5 1 -5 -6 -1 -8 5 -17 -4 -28 -29
-9 -22 -19 -33 -26 -29 -7 4 -8 3 -4 -5 4 -6 0 -18 -8 -27 -9 -8 -14 -26 -12
-38 3 -17 -1 -23 -12 -23 -35 0 -41 -3 -36 -17 3 -7 -2 -16 -10 -19 -19 -8
-21 -33 -3 -40 9 -4 9 -6 0 -6 -6 -1 -15 4 -18 9 -9 15 -67 -60 -60 -77 2 -8
0 -11 -5 -8 -11 7 -80 -61 -72 -70 3 -3 0 -5 -7 -5 -15 0 -71 -54 -71 -68 0
-6 -20 -22 -45 -37 -25 -14 -43 -30 -40 -35 3 -5 -3 -11 -12 -14 -10 -3 -41
-27 -70 -54 -29 -26 -60 -54 -71 -62 -10 -8 -13 -12 -7 -8 7 5 11 -2 11 -17 0
-22 -2 -23 -16 -10 -21 19 -30 19 -30 -1 0 -8 -4 -13 -9 -10 -5 3 -12 -1 -15
-10 -3 -8 -11 -12 -16 -9 -6 4 -9 1 -8 -6 2 -6 -3 -14 -11 -17 -9 -3 -11 0 -6
8 5 9 4 11 -3 6 -7 -4 -12 -14 -12 -22 0 -8 -4 -13 -8 -12 -9 3 -76 -47 -100
-74 -9 -9 -19 -15 -24 -12 -4 3 -30 -13 -56 -35 -27 -23 -55 -41 -63 -41 -12
0 -12 -2 1 -9 8 -6 17 -8 21 -5 4 2 10 0 14 -5 6 -10 -16 -8 -46 4 -10 4 -19
0 -22 -9 -4 -9 -14 -16 -24 -16 -16 0 -16 -2 -3 -11 12 -9 12 -10 -3 -5 -25 8
-43 -4 -26 -16 11 -7 10 -8 -3 -6 -9 2 -17 -1 -17 -7 0 -5 8 -9 17 -7 15 2 15
1 2 -7 -9 -7 -18 -7 -24 -1 -13 13 -49 13 -42 1 3 -5 -1 -12 -10 -15 -10 -4
-13 -2 -8 6 5 7 3 8 -5 4 -7 -5 -10 -14 -8 -21 4 -8 -3 -12 -16 -11 -12 1 -28
-3 -35 -9 -7 -5 -18 -14 -25 -20 -7 -5 -30 -20 -52 -32 -22 -13 -39 -27 -38
-32 2 -6 -4 -8 -12 -5 -8 4 -15 1 -15 -5 0 -6 -7 -8 -17 -4 -12 5 -14 3 -8 -7
5 -8 4 -11 -2 -7 -5 3 -35 -9 -65 -28 -31 -18 -59 -30 -63 -27 -3 4 -15 -4
-27 -18 -11 -14 -17 -18 -13 -10 4 10 2 9 -8 -2 -8 -10 -16 -15 -19 -12 -3 3
-26 -8 -52 -24 -25 -16 -43 -31 -41 -34 3 -3 -5 -4 -18 -3 -12 1 -24 -1 -27
-4 -11 -13 -72 -41 -89 -41 -10 0 -26 -9 -35 -19 -10 -10 -25 -18 -34 -16 -9
1 -19 -1 -22 -4 -12 -14 -142 -71 -151 -66 -5 4 -9 1 -9 -4 0 -6 -6 -11 -12
-11 -7 0 -25 -6 -39 -14 -14 -7 -38 -16 -53 -20 -15 -4 -25 -10 -22 -15 3 -4
-7 -8 -23 -9 -16 0 -46 -10 -67 -21 -21 -12 -46 -21 -55 -21 -9 0 -22 -7 -29
-15 -6 -8 -19 -14 -28 -13 -36 3 -53 -2 -46 -14 4 -6 3 -8 -3 -5 -10 6 -150
-38 -169 -54 -6 -5 -20 -6 -29 -2 -13 5 -16 3 -10 -6 6 -10 2 -11 -15 -6 -16
5 -20 4 -15 -5 5 -9 2 -10 -14 -5 -12 3 -21 2 -21 -4 0 -5 -8 -10 -17 -10 -10
0 -34 -4 -53 -10 -19 -5 -62 -17 -95 -26 -33 -9 -64 -20 -70 -23 -5 -4 -20 -5
-32 -4 -11 2 -24 -2 -28 -7 -3 -6 -22 -11 -41 -11 -19 0 -34 -4 -34 -8 0 -5
-6 -9 -12 -9 -18 0 -223 -41 -276 -55 -24 -6 -58 -12 -75 -13 -18 -1 -43 -5
-57 -9 -14 -3 -38 -8 -55 -11 -16 -2 -59 -9 -94 -14 -36 -6 -69 -7 -74 -4 -6
3 -7 1 -3 -6 6 -8 1 -10 -17 -6 -14 4 -35 1 -47 -5 -16 -9 -20 -9 -15 -1 4 8
-2 10 -22 7 -108 -18 -418 -24 -558 -10 -44 4 -112 8 -152 8 -39 1 -69 4 -67
8 6 9 -53 28 -87 28 -15 0 -31 5 -35 11 -3 6 -15 9 -25 6 -11 -3 -17 -2 -14 3
7 11 -39 21 -62 14 -13 -4 -15 -3 -5 4 11 7 7 11 -15 16 -33 9 -115 47 -124
59 -3 4 -10 7 -15 5 -5 -2 -11 2 -13 7 -7 18 -64 55 -74 48 -6 -3 -7 -1 -3 5
6 11 -53 78 -66 74 -4 -1 -4 6 -1 15 5 12 3 14 -7 8 -9 -5 -11 -4 -6 4 4 6 0
23 -9 37 -9 13 -13 30 -9 36 4 6 3 8 -4 4 -6 -4 -11 1 -11 11 0 10 -4 36 -10
59 -11 45 -10 185 1 177 7 -4 13 30 9 51 -3 12 21 59 34 68 6 5 4 8 -5 8 -11
0 -12 2 -3 8 7 4 14 24 17 43 2 20 9 34 17 34 8 0 13 8 13 18 -1 9 2 15 6 12
17 -10 20 14 4 29 -8 9 -12 16 -7 16 5 0 14 -5 20 -11 9 -9 11 15 5 55 -1 6
-13 -5 -27 -24 -16 -22 -23 -41 -19 -54 6 -20 5 -20 -8 -3 -12 17 -17 13 -63
-47 -27 -37 -54 -66 -59 -66 -5 0 -7 -3 -3 -6 3 -3 -3 -16 -15 -28 -11 -11
-28 -38 -38 -58 -9 -21 -20 -35 -24 -30 -4 4 -6 0 -5 -8 2 -8 -6 -29 -17 -45
-27 -39 -64 -122 -57 -129 3 -3 1 -12 -6 -20 -6 -7 -14 -35 -16 -62 -6 -60
-25 -84 -25 -32 0 59 45 186 101 283 79 139 174 257 331 410 140 138 337 309
345 301 2 -2 -42 -48 -98 -102 -184 -179 -331 -404 -374 -574 -26 -100 -17
-238 20 -314 79 -165 268 -273 575 -328 145 -26 488 -36 682 -19 801 69 1719
363 2518 809 409 228 739 470 1010 742 284 283 429 520 462 750 23 161 -20
288 -137 406 -154 156 -420 237 -780 238 -88 0 -178 -4 -200 -8 -22 -4 -36 -4
-32 0 14 15 268 42 385 42 62 0 111 -2 109 -5z m448 -18 c121 -25 252 -71 335
-118 151 -85 267 -236 277 -360 3 -40 2 -48 -7 -35 -6 10 -12 31 -13 48 -1 20
-6 28 -15 25 -10 -4 -10 0 -1 18 11 20 11 21 -5 8 -14 -12 -16 -12 -10 2 6 16
-29 107 -42 107 -3 0 -3 -7 0 -16 3 -9 2 -12 -5 -9 -5 4 -7 16 -3 28 3 12 3
19 -2 14 -4 -4 -14 5 -21 20 -7 16 -11 20 -8 10 3 -10 1 -15 -5 -12 -6 3 -10
13 -10 21 0 8 -4 14 -8 14 -4 0 -25 17 -47 38 -21 20 -35 30 -30 22 4 -8 -2
-4 -15 8 -13 14 -30 22 -41 19 -10 -3 -18 -2 -17 2 2 22 -4 32 -18 27 -8 -3
-12 -2 -9 4 3 5 -7 12 -22 16 -34 7 -78 22 -118 39 -28 13 -174 46 -258 60
-25 4 -44 2 -55 -7 -12 -10 -14 -10 -8 0 5 8 1 12 -11 12 -37 1 -128 13 -133
17 -11 12 251 -6 325 -22z m-178 -31 c-3 -3 -12 -4 -19 -1 -8 3 -5 6 6 6 11 1
17 -2 13 -5z m306 -199 c-3 -9 -8 -14 -10 -11 -3 3 -2 9 2 15 9 16 15 13 8 -4z
m85 -110 c-3 -3 -9 2 -12 12 -6 14 -5 15 5 6 7 -7 10 -15 7 -18z m-3208 -420
l0 -196 -520 1 -521 1 -2 -231 -2 -230 468 2 467 3 0 -190 0 -190 -465 0 -466
0 -2 -233 -2 -232 538 0 537 0 0 -190 0 -190 -767 0 -768 0 3 1035 2 1035 750
0 750 0 0 -195z m640 -230 l0 -425 343 0 c188 0 360 5 381 10 22 5 53 23 70
40 29 28 31 36 30 95 -2 128 -110 282 -247 351 -28 15 -57 33 -66 41 -27 27
47 4 92 -28 22 -16 49 -29 61 -30 12 0 15 -3 8 -6 -6 -2 -9 -9 -6 -14 3 -6 11
-5 20 2 12 10 13 9 8 -5 -3 -9 -1 -16 6 -16 6 0 8 -4 5 -10 -4 -6 1 -7 12 -3
10 3 15 3 12 -1 -4 -4 9 -23 28 -42 18 -19 31 -39 28 -44 -4 -6 1 -10 9 -10 9
0 15 -3 15 -7 -4 -23 2 -43 11 -38 9 6 11 1 14 -37 1 -7 4 -15 7 -18 14 -11
16 -86 4 -134 -7 -28 -11 -54 -9 -58 3 -4 -2 -5 -10 -2 -9 3 -16 1 -16 -5 0
-6 -20 -19 -44 -30 -41 -19 -67 -20 -400 -21 -227 -1 -356 -5 -356 -11 0 -6
-5 -7 -10 -4 -6 4 -8 9 -6 13 2 4 -2 12 -9 19 -11 10 -15 10 -19 0 -3 -7 -3
-1 0 11 3 13 7 201 9 418 l3 394 -204 0 -204 0 0 -202 c-1 -500 -2 -1171 -1
-1479 l1 -336 78 4 c87 5 145 20 136 35 -4 5 4 5 16 -2 17 -9 21 -9 15 0 -5 9
-1 10 16 5 20 -7 22 -5 12 6 -10 12 -5 14 24 13 42 -2 65 4 57 17 -3 5 1 6 9
3 32 -12 35 21 39 376 2 285 6 358 17 370 12 13 72 15 414 13 279 -1 405 1
414 9 8 6 16 8 20 4 3 -3 1 -6 -6 -6 -7 0 -3 -8 9 -18 21 -17 22 -26 23 -182
2 -159 3 -165 22 -162 11 2 28 12 38 23 10 11 24 16 34 12 11 -4 14 -3 9 5 -4
7 -2 12 3 12 22 0 26 2 41 15 8 7 25 16 38 20 12 3 20 11 16 16 -3 5 -2 9 3 8
13 -4 93 32 93 41 0 5 9 12 20 15 12 4 30 16 42 28 11 12 17 16 13 8 -6 -10
-4 -12 4 -7 7 5 10 14 7 22 -3 8 -1 14 3 14 5 0 11 -6 14 -12 2 -7 3 86 3 207
-1 121 1 243 4 272 5 41 3 50 -7 42 -6 -6 -17 -8 -23 -4 -5 3 -10 1 -10 -5 0
-6 -4 -8 -10 -5 -5 3 -10 2 -10 -2 0 -18 -106 -44 -177 -45 -71 -1 -81 -4 -65
-24 4 -5 0 -2 -9 7 -13 14 -18 15 -34 3 -10 -8 -15 -14 -9 -14 5 0 -8 -16 -29
-35 -21 -19 -42 -35 -48 -35 -5 0 -9 -3 -9 -8 0 -9 -75 -42 -98 -42 -15 0 -15
-2 -2 -11 11 -8 7 -9 -19 -5 -25 5 -37 2 -48 -11 -8 -10 -12 -13 -8 -6 3 7 -4
17 -16 24 -22 11 -22 11 7 35 16 13 36 23 45 24 17 0 71 39 55 40 -5 0 -3 7 4
15 7 8 16 12 21 9 13 -7 59 48 54 64 -3 7 -1 11 4 8 5 -3 23 31 41 76 18 45
40 88 49 96 9 7 10 11 4 7 -18 -9 -16 10 2 25 8 7 12 17 8 23 -3 5 -2 7 4 4 5
-3 22 14 38 38 25 41 46 63 29 33 -3 -7 8 2 25 20 18 17 36 32 42 32 5 0 9 5
9 11 0 5 -4 8 -8 5 -5 -3 -9 1 -9 9 0 10 4 12 12 5 7 -5 15 -6 19 -2 4 4 11 7
14 8 4 0 16 4 27 8 95 37 91 36 90 12 0 -28 -22 -56 -42 -56 -9 0 -13 -6 -10
-14 4 -10 1 -13 -8 -10 -8 3 -20 -6 -29 -23 -8 -15 -15 -24 -16 -19 0 13 -70
-67 -70 -81 0 -7 -5 -13 -11 -13 -6 0 -8 -7 -5 -16 3 -8 2 -13 -3 -10 -4 3
-13 -6 -20 -20 -16 -35 -13 -44 4 -14 8 14 14 21 15 15 0 -5 -9 -25 -21 -44
l-20 -33 58 4 c32 3 72 12 88 21 17 8 44 22 60 30 48 23 73 57 77 104 1 7 5
10 9 8 11 -7 32 52 23 66 -4 8 -3 10 4 5 14 -8 36 40 26 56 -4 7 -2 8 4 4 7
-4 12 -1 12 6 0 7 11 30 25 51 14 20 23 42 19 49 -4 6 -3 8 3 5 6 -4 18 2 27
12 16 18 16 19 -1 17 -10 0 -21 -5 -25 -11 -5 -7 -8 -6 -8 1 0 11 -84 16 -139
8 -26 -4 -31 -8 -20 -15 10 -7 7 -8 -11 -4 -48 11 -157 -38 -232 -104 -16 -13
-26 -26 -24 -28 2 -3 -9 -18 -25 -34 -25 -25 -32 -42 -31 -69 0 -3 -6 -10 -13
-17 -10 -9 -18 -8 -34 6 -11 10 -18 20 -16 23 8 8 -32 123 -43 121 -5 -1 -8 9
-6 22 1 16 -3 25 -12 25 -8 0 -11 6 -7 17 5 13 2 15 -11 10 -9 -4 -15 -3 -12
2 3 5 -1 14 -9 21 -8 7 -13 16 -10 20 3 5 -6 7 -20 6 -13 -2 -22 0 -20 5 9 13
-59 58 -117 78 -65 22 -193 45 -227 39 -14 -2 -25 -11 -27 -22 -3 -19 31 -91
53 -114 12 -13 17 -27 14 -45 -2 -13 53 -120 72 -139 9 -10 17 -23 17 -29 0
-5 4 -7 10 -4 6 3 7 -1 4 -10 -4 -9 -3 -15 2 -14 19 3 35 -1 30 -9 -3 -5 10
-15 29 -24 19 -8 32 -12 29 -7 -2 5 11 2 31 -6 22 -10 49 -13 73 -9 34 5 38 9
34 30 -2 13 -8 24 -13 24 -5 0 -9 6 -9 14 0 33 -67 129 -82 119 -7 -4 -9 0 -5
10 4 11 1 17 -8 17 -7 0 -23 14 -35 30 -20 29 -53 45 -34 17 5 -7 -3 1 -18 18
-40 44 -34 49 20 15 101 -62 197 -195 218 -299 l7 -34 -74 5 c-162 10 -242 78
-319 273 -35 89 -79 158 -118 183 l-26 17 29 6 c54 12 189 9 257 -5 98 -21
175 -62 238 -125 63 -64 97 -128 113 -209 l11 -58 28 57 c52 103 155 180 289
213 61 15 299 24 299 11 0 -3 -16 -19 -35 -36 -33 -29 -61 -79 -135 -244 -60
-133 -134 -186 -273 -193 l-88 -4 7 28 c24 107 115 233 211 294 66 41 34 38
-41 -4 -114 -64 -191 -164 -250 -323 -42 -110 -115 -184 -218 -218 l-43 -15
44 6 c72 8 163 58 216 116 l47 52 86 1 c102 1 174 22 235 69 l42 32 0 -303 0
-302 -100 -60 c-117 -70 -239 -138 -313 -175 l-53 -27 3 196 3 195 -417 0
-418 0 0 -374 0 -373 -142 -47 c-126 -41 -153 -46 -230 -46 l-88 0 0 1035 0
1035 230 0 230 0 0 -425z m-2193 393 c-3 -8 -6 -5 -6 6 -1 11 2 17 5 13 3 -3
4 -12 1 -19z m5163 -63 c0 -49 -38 -172 -81 -262 -196 -410 -747 -912 -1452
-1323 l-146 -85 2 -153 2 -152 -234 0 -233 0 4 36 c5 43 14 44 -152 -31 -389
-176 -899 -348 -1356 -455 -321 -75 -800 -145 -954 -138 -69 3 -72 4 -47 16
16 6 26 8 23 3 -8 -12 106 -5 244 14 29 4 135 17 165 20 17 2 73 11 125 20 92
16 122 21 165 24 17 1 18 3 5 12 -12 8 -11 9 5 5 34 -9 328 50 320 65 -3 4 -1
11 5 14 6 4 9 1 8 -6 -2 -6 3 -14 11 -17 8 -2 11 -1 8 4 -3 5 9 10 26 11 18 1
48 9 67 17 19 7 60 19 90 26 62 14 164 45 182 56 6 4 27 8 47 10 20 2 37 8 39
14 2 5 20 10 40 10 27 0 33 3 22 10 -10 6 -6 9 15 8 17 0 42 5 58 11 29 11 38
24 10 14 -10 -3 -15 -2 -11 2 5 5 23 9 40 10 47 2 128 26 128 37 0 6 7 7 16 4
10 -4 13 -2 8 6 -5 8 -2 9 11 5 9 -4 23 -3 30 3 13 11 88 39 120 46 11 2 47
17 80 34 32 16 67 30 77 30 12 0 16 4 12 12 -4 6 -3 8 4 4 13 -8 63 14 56 25
-3 5 5 9 18 9 33 0 69 11 64 19 -3 4 3 7 13 8 30 2 111 45 105 55 -3 5 -13 7
-23 3 -12 -5 -13 -4 -4 6 10 10 15 9 28 -1 12 -10 18 -10 31 1 12 10 17 10 23
0 11 -17 52 1 264 111 162 83 213 120 200 142 -3 5 -2 6 4 3 6 -4 31 7 57 23
26 17 63 37 82 45 23 9 33 19 28 26 -5 8 -3 9 6 4 10 -6 12 -4 6 11 -12 31
-12 36 4 41 13 4 13 3 0 -6 -11 -8 -12 -11 -2 -11 7 0 11 -4 8 -9 -3 -5 1 -12
10 -15 9 -3 12 -2 9 5 -4 6 1 9 11 7 11 -2 18 2 17 9 -1 6 4 14 13 17 9 4 12
2 8 -5 -4 -7 11 0 32 15 21 14 45 26 53 26 10 0 11 3 2 14 -10 12 -9 14 6 10
10 -3 27 2 38 11 19 16 19 16 -5 5 -23 -10 -24 -10 -7 4 11 8 25 12 33 9 8 -3
14 0 14 6 0 6 6 11 14 11 8 0 28 14 45 31 19 18 36 27 43 23 7 -4 10 -4 6 1
-4 4 13 21 38 37 25 15 42 33 39 38 -4 6 -3 10 2 9 16 -4 73 27 66 36 -5 4 -3
5 3 2 7 -4 18 0 25 9 10 13 10 17 -2 25 -10 8 -8 9 9 4 16 -5 32 1 56 22 57
48 76 63 82 63 13 0 49 43 49 58 0 12 7 16 23 15 16 -2 21 1 16 10 -4 6 -4 9
1 5 11 -11 36 12 28 26 -3 6 -3 8 2 4 10 -10 67 31 60 43 -4 5 2 6 11 2 13 -5
16 -3 11 10 -3 9 -1 19 5 23 7 4 8 3 4 -4 -4 -7 -3 -12 3 -12 20 0 21 19 0 38
-15 15 -17 22 -8 27 7 5 10 4 7 -1 -3 -5 3 -17 14 -26 17 -17 22 -15 19 5 -1
5 3 6 8 3 12 -8 34 20 26 33 -3 6 0 9 8 6 7 -3 22 4 33 16 10 13 14 20 8 16
-6 -3 -11 0 -11 6 0 7 8 14 18 14 18 2 120 93 104 93 -5 0 -1 6 10 13 10 8 15
19 11 25 -3 6 -1 14 5 18 8 5 9 3 4 -7 -5 -8 5 0 21 16 16 17 29 33 27 36 -2
4 9 14 23 23 13 10 29 28 34 42 5 13 14 24 20 24 6 0 8 11 6 25 -3 15 -1 23 5
19 14 -8 47 37 44 62 -1 17 2 21 17 19 10 -2 16 0 13 5 -3 4 3 16 12 26 10 10
17 20 16 23 -5 11 10 46 22 56 18 14 38 82 29 97 -4 7 -3 9 2 5 5 -5 16 18 25
50 11 41 13 60 5 65 -8 5 -7 8 2 8 7 0 12 14 12 38 0 27 3 33 10 22 5 -8 10
-29 10 -45z m-2243 -300 c0 -8 -4 -12 -9 -9 -5 3 -6 10 -3 15 9 13 12 11 12
-6z m410 -21 c-3 -3 -12 -4 -19 -1 -8 3 -5 6 6 6 11 1 17 -2 13 -5z m-497 -64
c0 -5 -2 -10 -4 -10 -3 0 -8 5 -11 10 -3 6 -1 10 4 10 6 0 11 -4 11 -10z m-19
-17 c13 -16 12 -17 -3 -4 -17 13 -22 21 -14 21 2 0 10 -8 17 -17z m317 -57
c-7 -8 -15 -12 -17 -11 -5 6 10 25 20 25 5 0 4 -6 -3 -14z m1762 -52 c0 -8
-19 -13 -24 -6 -3 5 1 9 9 9 8 0 15 -2 15 -3z m-1452 -39 c-3 -3 -9 2 -12 12
-6 14 -5 15 5 6 7 -7 10 -15 7 -18z m-83 -53 c-3 -3 -11 0 -18 7 -9 10 -8 11
6 5 10 -3 15 -9 12 -12z m1445 14 c0 -2 -7 -7 -16 -10 -8 -3 -12 -2 -9 4 6 10
25 14 25 6z m-1405 -16 c-3 -5 -12 -10 -18 -10 -7 0 -6 4 3 10 19 12 23 12 15
0z m-164 -33 c-10 -9 -11 -8 -5 6 3 10 9 15 12 12 3 -3 0 -11 -7 -18z m1495
-44 c-1 -7 -8 -19 -16 -26 -12 -10 -12 -9 -1 6 12 16 8 22 -12 18 -5 -1 -6 2
-3 7 8 14 34 10 32 -5z m34 7 c0 -5 -5 -10 -11 -10 -5 0 -7 5 -4 10 3 6 8 10
11 10 2 0 4 -4 4 -10z m-126 -86 c3 -8 2 -12 -4 -9 -6 3 -10 10 -10 16 0 14 7
11 14 -7z m-134 -148 c0 -2 -7 -7 -16 -10 -8 -3 -12 -2 -9 4 6 10 25 14 25 6z
m-375 -66 c-3 -5 -12 -10 -18 -10 -7 0 -6 4 3 10 19 12 23 12 15 0z m-155
-134 c0 -2 -8 -10 -17 -17 -16 -13 -17 -12 -4 4 13 16 21 21 21 13z m-51 -27
c-15 -9 -32 -2 -24 11 3 5 13 6 21 3 12 -4 13 -8 3 -14z m368 -64 c0 -8 -4
-12 -9 -9 -5 3 -6 10 -3 15 9 13 12 11 12 -6z m-207 -49 c0 -2 -7 -7 -16 -10
-8 -3 -12 -2 -9 4 6 10 25 14 25 6z m-354 -32 c1 -9 0 -13 -4 -10 -3 4 -7 14
-8 22 -1 9 0 13 4 10 3 -4 7 -14 8 -22z m-81 -94 c-3 -5 -12 -10 -18 -10 -7 0
-6 4 3 10 19 12 23 12 15 0z m-186 -54 c-2 -2 -15 -9 -29 -15 -24 -11 -24 -11
-6 3 16 13 49 24 35 12z m26 -15 c3 -5 2 -12 -3 -15 -5 -3 -9 1 -9 9 0 17 3
19 12 6z m-30 -11 c-3 -5 -12 -10 -18 -10 -7 0 -6 4 3 10 19 12 23 12 15 0z
m-4012 -420 c3 -11 1 -18 -4 -14 -5 3 -9 12 -9 20 0 20 7 17 13 -6z m202 -159
c3 -5 2 -12 -3 -15 -5 -3 -9 1 -9 9 0 17 3 19 12 6z m-445 -57 c0 -30 23 -93
31 -88 5 3 6 -2 3 -10 -8 -22 43 -86 64 -79 15 4 15 3 2 -6 -12 -9 -7 -18 35
-55 28 -25 56 -43 63 -41 7 3 11 1 8 -4 -6 -9 42 -36 60 -33 5 1 20 -7 33 -19
14 -14 31 -19 46 -16 14 2 22 1 20 -3 -7 -12 41 -29 66 -23 19 4 21 3 9 -6
-13 -9 -13 -11 3 -11 9 0 18 0 20 0 1 0 26 -7 56 -15 29 -9 60 -14 68 -11 8 3
12 2 9 -3 -6 -9 0 -10 82 -12 23 -1 42 -5 42 -9 0 -8 37 -11 128 -13 17 0 32
-5 32 -10 0 -15 -181 -1 -301 23 -128 26 -263 71 -343 113 -82 43 -185 143
-220 211 -31 60 -46 136 -27 136 6 0 11 -7 11 -16z m2214 -153 c4 -5 -3 -7
-14 -4 -23 6 -26 13 -6 13 8 0 17 -4 20 -9z m103 -147 c-3 -3 -12 -4 -19 -1
-8 3 -5 6 6 6 11 1 17 -2 13 -5z m-1868 -38 c-2 -2 -15 -9 -29 -15 -24 -11
-24 -11 -6 3 16 13 49 24 35 12z m1468 -42 c-3 -3 -12 -4 -19 -1 -8 3 -5 6 6
6 11 1 17 -2 13 -5z"/>
<path d="M460 1310 c-60 -60 -67 -73 -51 -99 6 -10 12 -4 21 23 7 21 16 33 22
30 6 -4 8 -2 5 3 -4 6 0 16 8 23 8 7 15 17 15 22 0 5 12 20 28 33 15 13 24 25
20 25 -5 0 -35 -27 -68 -60z"/>
<path d="M3100 610 c-9 -6 -10 -10 -3 -10 6 0 15 5 18 10 8 12 4 12 -15 0z"/>
<path d="M1618 2642 l-717 -2 0 -993 c-1 -545 3 -997 7 -1004 10 -15 1470 -24
1476 -8 7 19 0 304 -8 312 -4 4 -239 8 -522 8 -283 0 -514 3 -514 7 0 4 -10
10 -21 13 -17 6 -19 9 -8 16 8 5 10 9 4 9 -6 0 -10 80 -10 219 0 121 3 217 8
214 4 -2 7 2 7 10 0 8 6 17 14 20 8 3 198 7 423 8 224 1 426 4 448 7 l40 4 -1
146 c-1 81 -2 153 -3 160 -1 9 -100 12 -460 12 l-459 0 -6 23 c-3 12 -5 121
-5 241 0 166 4 222 14 232 10 10 95 13 411 11 220 -1 448 0 509 3 l110 5 2
156 c2 116 0 159 -10 165 -6 5 -335 8 -729 6z m729 -119 c-3 -10 -5 -4 -5 12
0 17 2 24 5 18 2 -7 2 -21 0 -30z m-6 -60 c-12 -20 -14 -14 -5 12 4 9 9 14 11
11 3 -2 0 -13 -6 -23z"/>
<path d="M3315 2440 c3 -5 11 -10 16 -10 6 0 7 5 4 10 -3 6 -11 10 -16 10 -6
0 -7 -4 -4 -10z"/>
<path d="M5220 1559 c0 -5 5 -7 10 -4 6 3 10 8 10 11 0 2 -4 4 -10 4 -5 0 -10
-5 -10 -11z"/>
<path d="M4212 832 c-29 -15 -49 -32 -45 -36 4 -5 1 -7 -7 -4 -8 3 -26 -3 -39
-13 -13 -11 -30 -19 -38 -19 -8 0 -12 -3 -10 -7 3 -5 -7 -9 -21 -10 -15 0 -28
-6 -30 -12 -2 -6 -11 -11 -21 -11 -9 0 -26 -8 -37 -19 -12 -10 -35 -22 -52
-25 -22 -5 -30 -13 -29 -27 1 -10 5 -19 9 -19 60 -2 381 0 383 2 1 2 5 54 8
116 5 85 4 112 -6 112 -6 -1 -36 -13 -65 -28z"/>
<path d="M3950 2790 l1 -481 37 29 c20 16 43 32 50 36 24 14 202 74 197 67 -2
-5 13 -4 33 2 30 8 41 18 56 51 21 45 23 51 25 67 0 5 5 8 10 5 12 -8 33 19
23 29 -4 5 1 5 10 2 10 -3 21 -1 25 6 5 7 17 13 28 15 86 12 113 12 156 2 27
-7 47 -16 44 -20 -5 -8 18 -22 40 -25 6 0 9 -7 7 -14 -1 -7 2 -10 9 -5 9 5 10
2 6 -9 -3 -10 -2 -17 3 -17 9 0 15 -16 26 -62 7 -25 14 -265 14 -445 l0 -113
118 1 c64 0 126 4 137 8 18 7 19 21 22 296 1 180 -2 303 -8 329 -6 23 -13 56
-16 74 -3 17 -10 32 -15 32 -5 0 -8 6 -6 12 3 7 1 17 -4 23 -5 5 -17 21 -28
34 -11 13 -20 27 -20 32 0 4 -8 6 -17 4 -10 -1 -17 -10 -16 -20 1 -12 -2 -14
-9 -7 -6 6 -7 16 -2 24 12 19 14 39 3 32 -5 -3 -9 0 -9 6 0 6 -4 8 -10 5 -5
-3 -10 -1 -10 4 0 6 -11 11 -24 11 -14 0 -28 5 -32 12 -5 7 -2 8 7 3 9 -5 11
-5 4 2 -22 22 -231 44 -248 26 -4 -3 -21 -8 -38 -10 -16 -1 -39 -8 -50 -14
-17 -9 -18 -13 -7 -27 12 -15 11 -16 -4 -4 -14 11 -22 10 -50 -4 -18 -10 -37
-17 -42 -16 -5 2 -2 -8 7 -21 12 -19 13 -24 2 -24 -8 0 -12 4 -9 8 2 4 1 10
-4 13 -10 6 -43 -30 -35 -37 3 -3 -3 -4 -12 -3 -10 1 -22 10 -27 19 -5 10 -9
131 -8 277 l1 260 -171 0 -170 0 0 -480z m388 -174 c-7 -8 -15 -12 -17 -11 -5
6 10 25 20 25 5 0 4 -6 -3 -14z m343 1 c-7 -7 -14 -8 -21 -1 -6 6 -2 10 12 11
16 2 18 -1 9 -10z m30 -34 c13 -16 12 -17 -3 -4 -17 13 -22 21 -14 21 2 0 10
-8 17 -17z m-576 -153 c-3 -5 -12 -10 -18 -10 -7 0 -6 4 3 10 19 12 23 12 15
0z"/>
</g>
</svg>
